<mxfile host="65bd71144e">
    <diagram id="1wAXJgR3AbrRzV3odNjd" name="Page-1">
        <mxGraphModel dx="651" dy="639" grid="1" gridSize="10" guides="1" tooltips="1" connect="1" arrows="1" fold="1" page="1" pageScale="1" pageWidth="850" pageHeight="1100" math="0" shadow="0">
            <root>
                <mxCell id="0"/>
                <mxCell id="1" parent="0"/>
                <mxCell id="4" value="" style="edgeStyle=none;html=1;" parent="1" source="2" target="3" edge="1">
                    <mxGeometry relative="1" as="geometry"/>
                </mxCell>
                <mxCell id="6" value="" style="edgeStyle=none;html=1;" parent="1" source="2" target="5" edge="1">
                    <mxGeometry relative="1" as="geometry"/>
                </mxCell>
                <mxCell id="2" value="App.js" style="whiteSpace=wrap;html=1;" parent="1" vertex="1">
                    <mxGeometry x="530" y="120" width="80" height="60" as="geometry"/>
                </mxCell>
                <mxCell id="3" value="Navbar.js" style="whiteSpace=wrap;html=1;" parent="1" vertex="1">
                    <mxGeometry x="370" y="230" width="100" height="60" as="geometry"/>
                </mxCell>
                <mxCell id="8" value="" style="edgeStyle=none;html=1;" parent="1" source="5" target="7" edge="1">
                    <mxGeometry relative="1" as="geometry"/>
                </mxCell>
                <mxCell id="11" value="" style="edgeStyle=none;html=1;" parent="1" source="5" target="10" edge="1">
                    <mxGeometry relative="1" as="geometry"/>
                </mxCell>
                <mxCell id="12" value="" style="edgeStyle=none;html=1;" parent="1" source="5" target="9" edge="1">
                    <mxGeometry relative="1" as="geometry"/>
                </mxCell>
                <mxCell id="24" value="" style="edgeStyle=none;html=1;" parent="1" source="5" target="21" edge="1">
                    <mxGeometry relative="1" as="geometry"/>
                </mxCell>
                <mxCell id="40" value="" style="edgeStyle=none;html=1;" parent="1" source="5" target="36" edge="1">
                    <mxGeometry relative="1" as="geometry"/>
                </mxCell>
                <mxCell id="43" value="" style="edgeStyle=none;html=1;" edge="1" parent="1" source="5" target="42">
                    <mxGeometry relative="1" as="geometry"/>
                </mxCell>
                <mxCell id="5" value="Tracker.js" style="whiteSpace=wrap;html=1;" parent="1" vertex="1">
                    <mxGeometry x="520" y="330" width="80" height="60" as="geometry"/>
                </mxCell>
                <mxCell id="7" value="LineItem.js" style="whiteSpace=wrap;html=1;" parent="1" vertex="1">
                    <mxGeometry x="150" y="530" width="70" height="30" as="geometry"/>
                </mxCell>
                <mxCell id="9" value="LineItem.js" style="whiteSpace=wrap;html=1;" parent="1" vertex="1">
                    <mxGeometry x="270" y="450" width="70" height="30" as="geometry"/>
                </mxCell>
                <mxCell id="10" value="LineItem.js" style="whiteSpace=wrap;html=1;" parent="1" vertex="1">
                    <mxGeometry x="220" y="490" width="70" height="30" as="geometry"/>
                </mxCell>
                <mxCell id="19" value="" style="edgeStyle=none;html=1;" parent="1" source="21" target="23" edge="1">
                    <mxGeometry relative="1" as="geometry"/>
                </mxCell>
                <mxCell id="20" value="" style="edgeStyle=none;html=1;" parent="1" source="21" target="22" edge="1">
                    <mxGeometry relative="1" as="geometry"/>
                </mxCell>
                <mxCell id="32" value="" style="edgeStyle=none;html=1;" parent="1" source="21" target="31" edge="1">
                    <mxGeometry relative="1" as="geometry"/>
                </mxCell>
                <mxCell id="21" value="Expenses.js" style="whiteSpace=wrap;html=1;" parent="1" vertex="1">
                    <mxGeometry x="390" y="540" width="80" height="60" as="geometry"/>
                </mxCell>
                <mxCell id="22" value="LineItem.js" style="whiteSpace=wrap;html=1;" parent="1" vertex="1">
                    <mxGeometry x="425.00000000000006" y="720" width="70" height="30" as="geometry"/>
                </mxCell>
                <mxCell id="23" value="LineItem.js" style="whiteSpace=wrap;html=1;" parent="1" vertex="1">
                    <mxGeometry x="370.00000000000006" y="665" width="70" height="30" as="geometry"/>
                </mxCell>
                <mxCell id="31" value="LineItem.js" style="whiteSpace=wrap;html=1;" parent="1" vertex="1">
                    <mxGeometry x="300" y="695" width="70" height="30" as="geometry"/>
                </mxCell>
                <mxCell id="33" value="" style="edgeStyle=none;html=1;" parent="1" source="36" target="38" edge="1">
                    <mxGeometry relative="1" as="geometry"/>
                </mxCell>
                <mxCell id="34" value="" style="edgeStyle=none;html=1;" parent="1" source="36" target="37" edge="1">
                    <mxGeometry relative="1" as="geometry"/>
                </mxCell>
                <mxCell id="35" value="" style="edgeStyle=none;html=1;" parent="1" source="36" target="39" edge="1">
                    <mxGeometry relative="1" as="geometry"/>
                </mxCell>
                <mxCell id="36" value="Income.js" style="whiteSpace=wrap;html=1;" parent="1" vertex="1">
                    <mxGeometry x="597.9000000000001" y="530" width="80" height="60" as="geometry"/>
                </mxCell>
                <mxCell id="37" value="LineItem.js" style="whiteSpace=wrap;html=1;" parent="1" vertex="1">
                    <mxGeometry x="650.0000000000001" y="620" width="70" height="30" as="geometry"/>
                </mxCell>
                <mxCell id="38" value="LineItem.js" style="whiteSpace=wrap;html=1;" parent="1" vertex="1">
                    <mxGeometry x="610.0000000000001" y="665" width="70" height="30" as="geometry"/>
                </mxCell>
                <mxCell id="39" value="LineItem.js" style="whiteSpace=wrap;html=1;" parent="1" vertex="1">
                    <mxGeometry x="550" y="710" width="70" height="30" as="geometry"/>
                </mxCell>
                <mxCell id="42" value="Summary.js" style="rhombus;whiteSpace=wrap;html=1;" vertex="1" parent="1">
                    <mxGeometry x="740" y="420" width="80" height="80" as="geometry"/>
                </mxCell>
            </root>
        </mxGraphModel>
    </diagram>
</mxfile>